<svg xmlns="http://www.w3.org/2000/svg" viewBox="0 0 160 180" role="img" aria-label="수달 캐릭터 사"><ellipse cx="80" cy="158" rx="46" ry="12" fill="#5B5BD6" opacity=".1"/><path d="M119 110c28 7 35 29 18 42-13 10-32 3-36-12" fill="#8A5F48"/><ellipse cx="79" cy="115" rx="45" ry="51" fill="#9B6A50"/><circle cx="42" cy="53" r="17" fill="#8A5F48"/><circle cx="116" cy="53" r="17" fill="#8A5F48"/><circle cx="79" cy="61" r="48" fill="#9B6A50"/><ellipse cx="79" cy="80" rx="29" ry="24" fill="#F1D3B7"/><circle cx="62" cy="57" r="4" fill="#24242C"/><circle cx="96" cy="57" r="4" fill="#24242C"/><path d="M74 73q5-5 10 0q-2 8-5 8t-5-8" fill="#3D302B"/><path d="M68 85q11 10 22 0" fill="none" stroke="#5A4035" stroke-width="3" stroke-linecap="round"/><circle cx="49" cy="74" r="7" fill="#E98086" opacity=".45"/><circle cx="109" cy="74" r="7" fill="#E98086" opacity=".45"/><path d="M53 120q-20 15-13 29M105 120q20 15 13 29" fill="none" stroke="#9B6A50" stroke-width="14" stroke-linecap="round"/><path d="M66 108h27l-4 18H70z" fill="#BBA7FF" opacity=".9"/></svg>
